<svg width="50" height="50" viewBox="0 0 50 50" fill="none" xmlns="http://www.w3.org/2000/svg">
<g clip-path="url(#clip0_60_386)">
<path fill-rule="evenodd" clip-rule="evenodd" d="M25 46.875C12.9187 46.875 3.125 37.0781 3.125 25C3.125 12.9219 12.9187 3.125 25 3.125C37.0812 3.125 46.875 12.9219 46.875 25C46.875 37.0781 37.0812 46.875 25 46.875ZM25 0C11.1922 0 0 11.1875 0 25C0 38.8125 11.1922 50 25 50C38.8078 50 50 38.8125 50 25C50 11.1875 38.8078 0 25 0ZM34.375 23.4375H26.5625V15.625C26.5625 14.7656 25.8641 14.0625 25 14.0625C24.1359 14.0625 23.4375 14.7656 23.4375 15.625V23.4375H15.625C14.7609 23.4375 14.0625 24.1406 14.0625 25C14.0625 25.8594 14.7609 26.5625 15.625 26.5625H23.4375V34.375C23.4375 35.2344 24.1359 35.9375 25 35.9375C25.8641 35.9375 26.5625 35.2344 26.5625 34.375V26.5625H34.375C35.2391 26.5625 35.9375 25.8594 35.9375 25C35.9375 24.1406 35.2391 23.4375 34.375 23.4375Z" fill="#D9D9D9"/>
</g>
<defs>
<clipPath id="clip0_60_386">
<rect width="50" height="50" fill="white"/>
</clipPath>
</defs>
</svg>
