<svg width="30" height="30" viewBox="0 0 30 30" fill="none" xmlns="http://www.w3.org/2000/svg">
<g clip-path="url(#clip0_19_206)">
<path d="M2.14286 2.72727V24.5455C2.14286 25.2688 2.36862 25.9625 2.77049 26.4739C3.17235 26.9854 3.71739 27.2727 4.28571 27.2727H25.7143C26.2826 27.2727 26.8277 26.9854 27.2295 26.4739C27.6314 25.9625 27.8571 25.2688 27.8571 24.5455V2.72727H2.14286ZM2.14286 0H27.8571C28.4255 0 28.9705 0.287337 29.3724 0.7988C29.7742 1.31026 30 2.00396 30 2.72727V24.5455C30 25.9921 29.5485 27.3795 28.7447 28.4024C27.941 29.4253 26.8509 30 25.7143 30H4.28571C3.14907 30 2.05898 29.4253 1.25526 28.4024C0.451529 27.3795 0 25.9921 0 24.5455V2.72727C0 2.00396 0.225765 1.31026 0.627628 0.7988C1.02949 0.287337 1.57454 0 2.14286 0Z" fill="#D9D9D9"/>
<path d="M30 2.25L20.5298 11.9914C19.8402 12.7008 18.9901 13.2694 18.0363 13.6589C17.0826 14.0485 16.0474 14.25 15 14.25C13.9526 14.25 12.9174 14.0485 11.9637 13.6589C11.0099 13.2694 10.1598 12.7008 9.47021 11.9914L0 2.25H30ZM3.25469 2.25L11.3118 10.539C11.7716 11.0121 12.3384 11.3912 12.9743 11.651C13.6102 11.9108 14.3004 12.0452 14.9988 12.0452C15.6971 12.0452 16.3874 11.9108 17.0233 11.651C17.6592 11.3912 18.226 11.0121 18.6857 10.539L26.7453 2.25H3.25469Z" fill="#D9D9D9"/>
</g>
<defs>
<clipPath id="clip0_19_206">
<rect width="30" height="30" fill="white"/>
</clipPath>
</defs>
</svg>
