<svg width="50" height="50" viewBox="0 0 50 50" fill="none" xmlns="http://www.w3.org/2000/svg">
<g clip-path="url(#clip0_62_603)">
<path d="M15.3949 29.126L30.0831 14.437L27.4464 11.8011L12.7589 26.4885C11.8642 27.3825 11.1886 28.4229 10.739 29.5317C10.0649 31.1942 9.89767 33.0068 10.2336 34.7444C10.5695 36.4812 11.4168 38.1504 12.7589 39.4919C13.6523 40.3867 14.6934 41.063 15.8015 41.5118C17.4647 42.1852 19.2766 42.3531 21.0141 42.0164C22.7517 41.6812 24.4201 40.834 25.7615 39.4918L43.7746 21.4787C45.0002 20.2539 45.9246 18.8315 46.5385 17.3154C47.4608 15.0413 47.6904 12.5576 47.2296 10.1802C46.7711 7.80273 45.6132 5.52275 43.7754 3.68476C42.5506 2.45927 41.1274 1.53623 39.6121 0.920894C37.3372 -0.000589959 34.8558 -0.229496 32.4776 0.229781C30.0995 0.689058 27.8194 1.84697 25.9822 3.68554L7.27716 22.3897C5.70157 23.9653 4.51407 25.7935 3.72481 27.7414C2.53936 30.6643 2.24435 33.8555 2.83517 36.9144C3.42677 39.9703 4.91231 42.8992 7.27716 45.2625C8.85196 46.838 10.6802 48.0257 12.6287 48.8156C15.5509 50.0003 18.7429 50.2961 21.8003 49.7037C24.8569 49.1129 27.7858 47.6273 30.1499 45.2625L45.5293 29.8824L42.8932 27.2464L27.5131 42.6265C26.2943 43.8453 24.8941 44.7535 23.3967 45.3599C21.153 46.271 18.6894 46.4999 16.3351 46.0436C13.9799 45.5858 11.7414 44.4532 9.91397 42.6265C8.69434 41.4077 7.78692 40.0075 7.17901 38.5093C6.26856 36.2663 6.04044 33.8019 6.4961 31.4476C6.95313 29.0932 8.08643 26.854 9.91397 25.0265L28.6183 6.32226C29.4862 5.4542 30.4814 4.80839 31.5464 4.37656C33.142 3.7292 34.8959 3.5665 36.571 3.89052C38.2468 4.21611 39.8365 5.02089 41.1386 6.3207C42.0066 7.18945 42.6509 8.18457 43.0827 9.24882C43.7308 10.8443 43.8936 12.599 43.5695 14.2742C43.244 15.9493 42.4391 17.5397 41.1386 18.8418L23.1247 36.855C22.5874 37.3915 21.9743 37.7892 21.3181 38.056C20.3334 38.4558 19.2491 38.5568 18.2146 38.3561C17.1793 38.154 16.2013 37.6591 15.3949 36.855C14.8576 36.3177 14.4608 35.7045 14.1947 35.0476C13.7949 34.0636 13.6931 32.9785 13.8944 31.944C14.0966 30.9088 14.59 29.9308 15.3949 29.126Z" fill="#000059"/>
</g>
<defs>
<clipPath id="clip0_62_603">
<rect width="50" height="50" fill="white"/>
</clipPath>
</defs>
</svg>
