<svg width="40" height="40" viewBox="0 0 40 40" fill="none" xmlns="http://www.w3.org/2000/svg">
<g clip-path="url(#clip0_39_353)">
<path fill-rule="evenodd" clip-rule="evenodd" d="M20 32.5C18.54 32.5 17.13 32.33 15.775 32.0412L9.89 35.5788L9.96875 29.78C5.4575 27.0675 2.5 22.5825 2.5 17.5C2.5 9.21625 10.335 2.5 20 2.5C29.665 2.5 37.5 9.21625 37.5 17.5C37.5 25.785 29.665 32.5 20 32.5ZM20 0C8.955 0 0 7.83625 0 17.5C0 23.0238 2.93125 27.9425 7.5 31.1488V40L16.2613 34.6838C17.4738 34.8838 18.7213 35 20 35C31.045 35 40 27.165 40 17.5C40 7.83625 31.045 0 20 0Z" fill="#D9D9D9"/>
</g>
<defs>
<clipPath id="clip0_39_353">
<rect width="40" height="40" fill="white"/>
</clipPath>
</defs>
</svg>
