<svg width="40" height="40" viewBox="0 0 40 40" fill="none" xmlns="http://www.w3.org/2000/svg">
<g clip-path="url(#clip0_55_301)">
<path fill-rule="evenodd" clip-rule="evenodd" d="M33.9689 0.309234C35.0623 0.833967 36.3529 1.59378 37.3792 2.62016C38.4075 3.64863 39.1672 4.93738 39.6877 6.03092C40.3446 7.40362 39.9186 8.98621 38.8461 10.0609L23.7064 25.2004C23.0558 25.8511 22.2626 26.336 21.3874 26.6172L12.5269 29.4571C12.2513 29.5455 11.9567 29.5562 11.6754 29.488C11.3941 29.4199 11.1371 29.2754 10.9325 29.0706C10.728 28.8659 10.5839 28.6086 10.516 28.3273C10.4481 28.0459 10.4592 27.7512 10.5479 27.4757L13.3873 18.6161C13.6676 17.7415 14.1525 16.9463 14.8018 16.2968L29.9415 1.1551C31.0161 0.0804513 32.5984 -0.343533 33.971 0.311334L33.9689 0.309234ZM34.4117 5.59014C33.8933 5.10036 33.3082 4.68627 32.674 4.36017L17.996 19.0401C17.8468 19.189 17.7209 19.3595 17.6224 19.5459L14.4807 25.5216L20.4535 22.3816C20.6424 22.2829 20.8124 22.157 20.9614 22.008L35.6394 7.32806C35.3133 6.69375 34.9014 6.10867 34.4117 5.59014ZM4.19522 7.46659C4.19476 7.19848 4.29693 6.94037 4.48074 6.74522C4.66455 6.55007 4.91607 6.43267 5.18368 6.41712L16.7893 6.42762C17.3459 6.42762 17.8797 6.20648 18.2732 5.81285C18.6668 5.41923 18.8879 4.88536 18.8879 4.32869C18.8879 3.77202 18.6668 3.23814 18.2732 2.84452C17.8797 2.45089 17.3459 2.22976 16.7893 2.22976L5.24664 2.21926C3.85515 2.21926 2.52064 2.7721 1.53671 3.75617C0.55277 4.74023 0 6.07491 0 7.46659V33.8648C0 35.46 0.17209 36.3521 0.669472 37.2798C1.13957 38.1592 1.84052 38.8624 2.71986 39.3325C3.64747 39.8279 4.5373 40 6.13437 40H31.6415C33.2364 40 34.1284 39.8279 35.056 39.3325C35.9374 38.8624 36.6384 38.1592 37.1085 37.2798C37.6037 36.3521 37.7758 35.4621 37.7758 33.8648V23.2086C37.7758 22.6519 37.5547 22.118 37.1611 21.7244C36.7676 21.3308 36.2338 21.1096 35.6772 21.1096C35.1206 21.1096 34.5868 21.3308 34.1932 21.7244C33.7996 22.118 33.5785 22.6519 33.5785 23.2086V33.8648C33.5785 34.8282 33.5344 35.0633 33.4064 35.3005C33.3336 35.442 33.2184 35.5572 33.0769 35.63C32.8398 35.756 32.6047 35.8021 31.6415 35.8021H6.13437C5.17109 35.8021 4.93814 35.756 4.69889 35.63C4.55735 35.5573 4.44212 35.4421 4.3694 35.3005C4.24348 35.0633 4.19731 34.8282 4.19731 33.8648L4.19522 7.46659Z" fill="#D9D9D9"/>
</g>
<defs>
<clipPath id="clip0_55_301">
<rect width="40" height="40" fill="white"/>
</clipPath>
</defs>
</svg>
