<svg width="40" height="40" viewBox="0 0 40 40" fill="none" xmlns="http://www.w3.org/2000/svg">
<path d="M38.1827 40H12.7364C11.7345 40 10.9182 38.88 10.9182 37.5013V35.0025C10.9182 34.545 11.1009 34.125 11.3927 33.905L20.2891 27.2338C17.3091 22.8025 17.2764 16.5338 17.2764 16.2437L17.2818 8.7525C17.2818 8.6825 17.2864 8.61375 17.2945 8.54625C17.9209 3.43875 22.0218 0.00875 25.4591 0.00875H25.4627C28.8982 0.00875 32.9982 3.43625 33.6264 8.5425C33.6345 8.61125 33.6391 8.68125 33.6391 8.75L33.6418 16.2425C33.6418 16.5312 33.6091 22.8 30.63 27.2313L39.5264 33.9025C39.8182 34.1225 40 34.5425 40 35V37.5013C40 38.88 39.1845 40 38.1827 40ZM28.66 28.6C28.3936 28.4 28.2173 28.0312 28.1891 27.6163C28.1618 27.2013 28.2873 26.795 28.5218 26.5325C31.7918 22.8875 31.8245 16.31 31.8245 16.2437L31.8209 8.86125C31.31 5.11125 28.0755 2.50625 25.4591 2.50625C22.8418 2.5075 19.6091 5.11375 19.1 8.86375L19.0945 16.2463C19.0945 16.31 19.1445 22.9088 22.3964 26.535C22.6318 26.7975 22.7573 27.2037 22.7291 27.6187C22.7018 28.0337 22.5255 28.4025 22.2591 28.6025L12.7364 35.745V37.5013H38.1809L38.1818 35.7437L28.66 28.6ZM16.9518 3.15C16.1491 2.72125 15.3164 2.49625 14.5409 2.49625C11.9236 2.4975 8.69 5.10375 8.18091 8.85375L8.17546 16.2362C8.17546 16.3013 8.22455 22.8987 11.4773 26.525C11.7127 26.7875 11.8382 27.1938 11.8109 27.6087C11.7827 28.0238 11.6064 28.3925 11.34 28.5925L1.81727 35.735V37.4912H8.18C8.68182 37.4912 9.08818 38.0513 9.08818 38.7412C9.08818 39.4313 8.68182 39.9912 8.18 39.9912H1.81727C0.815455 39.9912 0 38.87 0 37.4912V34.9925C0 34.5363 0.181818 34.115 0.473636 33.8963L9.37 27.2237C6.39091 22.7925 6.35727 16.5238 6.35727 16.235L6.36273 8.7425C6.36273 8.67375 6.36727 8.60375 6.37545 8.53625C7.00182 3.43 11.1027 0 14.5409 0C14.5445 0 14.55 0 14.5545 0C15.5464 0 16.6018 0.28375 17.6082 0.82C18.0773 1.07 18.3091 1.79375 18.1282 2.43625C17.9455 3.08 17.4164 3.4 16.9518 3.15Z" fill="#D9D9D9"/>
</svg>
