<svg width="40" height="40" viewBox="0 0 40 40" fill="none" xmlns="http://www.w3.org/2000/svg">
<g clip-path="url(#clip0_37_207)">
<path d="M20 6.33983L18.9946 7.4514C19.2577 7.76536 19.6207 7.94275 20 7.94275C20.3793 7.94275 20.7423 7.76536 21.0054 7.4514L20 6.33983ZM15.2113 33.7419C12.3914 31.1884 9.30804 28.6946 6.86194 25.5305C4.46367 22.428 2.7907 18.8082 2.7907 14.1118H0C0 19.8086 2.06605 24.1547 4.77529 27.6592C7.43671 31.1018 10.8293 33.8559 13.4836 36.2596L15.2113 33.7419ZM2.7907 14.1118C2.7907 9.51491 5.05185 5.65995 8.13834 4.03922C11.1369 2.46469 15.1659 2.88167 18.9946 7.4514L21.0054 5.22825C16.4623 -0.193951 11.189 -1.0876 6.97816 1.12353C2.85527 3.28847 0 8.31549 0 14.1118H2.7907ZM13.4836 36.2596C14.4366 37.1226 15.4596 38.0429 16.4964 38.7388C17.5328 39.4345 18.7155 40 20 40V36.7941C19.424 36.7941 18.7462 36.5362 17.9044 35.9709C17.0629 35.406 16.1899 34.6283 15.2113 33.7419L13.4836 36.2596ZM26.5165 36.2596C29.1706 33.8559 32.5634 31.1018 35.2247 27.6592C37.934 24.1547 40 19.8086 40 14.1118H37.2093C37.2093 18.8082 35.5364 22.428 33.1381 25.5305C30.6919 28.6946 27.6086 31.1884 24.7888 33.7419L26.5165 36.2596ZM40 14.1118C40 8.31549 37.1447 3.28847 33.0218 1.12353C28.811 -1.0876 23.5377 -0.193951 18.9946 5.22825L21.0054 7.4514C24.834 2.88167 28.8631 2.46469 31.8616 4.03922C34.9481 5.65995 37.2093 9.51491 37.2093 14.1118H40ZM24.7888 33.7419C23.81 34.6283 22.9371 35.406 22.0956 35.9709C21.2538 36.5362 20.576 36.7941 20 36.7941V40C21.2845 40 22.4672 39.4345 23.5036 38.7388C24.5405 38.0429 25.5633 37.1226 26.5165 36.2596L24.7888 33.7419Z" fill="#D9D9D9"/>
</g>
<defs>
<clipPath id="clip0_37_207">
<rect width="40" height="40" fill="white"/>
</clipPath>
</defs>
</svg>
