<svg width="30" height="30" viewBox="0 0 30 30" fill="none" xmlns="http://www.w3.org/2000/svg">
<g clip-path="url(#clip0_18_39)">
<g filter="url(#filter0_d_18_39)">
<path fill-rule="evenodd" clip-rule="evenodd" d="M0 2.9865C0 1.338 1.48833 0 3.325 0H26.675C28.5117 0 30 1.347 30 2.9865V27.0135C30 28.662 28.5117 30 26.675 30H3.325C1.48833 30 0 28.653 0 27.0135V2.9865ZM3.325 25.4985C3.325 26.328 4.075 27 5.00333 27H24.9883C25.915 27 26.6667 26.3325 26.6667 25.4985V4.4895C26.6667 3.66 25.9167 2.988 24.9883 2.988H5.01167C4.085 2.988 3.33333 3.6555 3.33333 4.4895L3.325 25.4985ZM6.66667 9C6.66667 8.172 7.405 7.5 8.34833 7.5H11.65C12.5783 7.5 13.3317 8.166 13.3317 9C13.3317 9.828 12.5933 10.5 11.65 10.5H8.34833C7.42 10.5 6.66667 9.834 6.66667 9ZM6.66667 15C6.66667 14.172 7.42667 13.5 8.325 13.5H21.6733C22.59 13.5 23.3317 14.166 23.3317 15C23.3317 15.828 22.5717 16.5 21.6733 16.5H8.325C7.40833 16.5 6.66667 15.834 6.66667 15ZM6.66667 21C6.66667 20.172 7.42667 19.5 8.325 19.5H21.6733C22.59 19.5 23.3317 20.166 23.3317 21C23.3317 21.828 22.5717 22.5 21.6733 22.5H8.325C7.40833 22.5 6.66667 21.834 6.66667 21Z" fill="#D9D9D9"/>
</g>
</g>
<defs>
<filter id="filter0_d_18_39" x="-266.667" y="-253.333" width="563.333" height="563.333" filterUnits="userSpaceOnUse" color-interpolation-filters="sRGB">
<feFlood flood-opacity="0" result="BackgroundImageFix"/>
<feColorMatrix in="SourceAlpha" type="matrix" values="0 0 0 0 0 0 0 0 0 0 0 0 0 0 0 0 0 0 127 0" result="hardAlpha"/>
<feOffset dy="13.3333"/>
<feGaussianBlur stdDeviation="133.333"/>
<feColorMatrix type="matrix" values="0 0 0 0 0 0 0 0 0 0 0 0 0 0 0 0 0 0 0.1 0"/>
<feBlend mode="normal" in2="BackgroundImageFix" result="effect1_dropShadow_18_39"/>
<feBlend mode="normal" in="SourceGraphic" in2="effect1_dropShadow_18_39" result="shape"/>
</filter>
<clipPath id="clip0_18_39">
<rect width="30" height="30" fill="white"/>
</clipPath>
</defs>
</svg>
