<svg width="30" height="30" viewBox="0 0 30 30" fill="none" xmlns="http://www.w3.org/2000/svg">
<g clip-path="url(#clip0_18_12)">
<path d="M29.4447 24.5223C25.8876 23.0825 25.7523 16.9026 25.7497 16.7467V12.6007C25.7497 8.61041 23.0292 5.17918 19.1633 3.71819C19.155 1.66667 17.2907 0 15.0001 0C12.7094 0 10.8452 1.66677 10.8369 3.71809C6.97112 5.17908 4.25056 8.61031 4.25056 12.6006V16.7466C4.24805 16.9025 4.11263 23.0824 0.555497 24.5222C0.150282 24.6863 -0.0724251 25.0816 0.0212628 25.4712C0.114841 25.8609 0.499273 26.1392 0.943976 26.1392H9.96164C10.1465 27.0506 10.6274 27.8986 11.3628 28.5854C12.3396 29.4975 13.6314 29.9999 14.9999 29.9999C16.3686 29.9999 17.6604 29.4975 18.6371 28.5854C19.3727 27.8985 19.8535 27.0505 20.0383 26.1392H29.0559C29.5006 26.1392 29.885 25.8609 29.9787 25.4712C30.0725 25.0816 29.8499 24.6863 29.4447 24.5223ZM24.759 21.5618C25.133 22.5778 25.6624 23.5982 26.4132 24.4473H3.58687C4.33758 23.5983 4.86705 22.578 5.24098 21.5618H24.759ZM15.0001 1.69191C16.0363 1.69191 16.9123 2.31594 17.1864 3.16652C16.4803 3.03525 15.749 2.96603 15.0001 2.96603C14.2512 2.96603 13.52 3.0352 12.8138 3.16652C13.088 2.31598 13.964 1.69191 15.0001 1.69191ZM6.13827 16.7518V12.6006C6.13827 8.22099 10.1136 4.65795 15.0001 4.65795C19.8866 4.65795 23.862 8.22099 23.862 12.6006V16.7587C23.8632 16.886 23.8853 18.2234 24.2614 19.8697H5.73863C6.11491 18.2218 6.13712 16.882 6.13827 16.7518ZM15.0001 28.3081C13.5595 28.3081 12.3021 27.3772 11.8986 26.1392H18.1015C17.698 27.3772 16.4409 28.3081 15.0001 28.3081Z" fill="#D9D9D9"/>
<path d="M15.0001 5.84485C10.9392 5.84485 7.63544 8.80588 7.63544 12.4455C7.63544 12.9128 8.05804 13.2915 8.57932 13.2915C9.10059 13.2915 9.5232 12.9128 9.5232 12.4455C9.5232 9.73883 11.9801 7.53676 15.0002 7.53676C15.5215 7.53676 15.9441 7.15799 15.9441 6.69078C15.944 6.22353 15.5214 5.84485 15.0001 5.84485Z" fill="#D9D9D9"/>
</g>
<defs>
<clipPath id="clip0_18_12">
<rect width="30" height="30" fill="white"/>
</clipPath>
</defs>
</svg>
