<svg width="70" height="70" viewBox="0 0 70 70" fill="none" xmlns="http://www.w3.org/2000/svg">
<g clip-path="url(#clip0_64_1119)">
<path d="M9.24625 25.7549C4.14706 25.7549 0 29.9019 0 34.9999C0 40.0989 4.14706 44.2449 9.24625 44.2449C14.3424 44.2449 18.4913 40.0991 18.4913 34.9999C18.4913 29.9019 14.3424 25.7549 9.24625 25.7549Z" fill="#D9D9D9"/>
<path d="M35.4533 25.7549C30.3547 25.7549 26.207 29.9019 26.207 34.9999C26.207 40.0989 30.3547 44.2449 35.4533 44.2449C40.5514 44.2449 44.6997 40.0991 44.6997 34.9999C44.6997 29.9019 40.5514 25.7549 35.4533 25.7549Z" fill="#D9D9D9"/>
<path d="M60.7554 25.7549C55.6581 25.7549 51.5098 29.9019 51.5098 34.9999C51.5098 40.0989 55.6581 44.2449 60.7554 44.2449C65.8515 44.2449 70 40.0991 70 34.9999C70 29.9019 65.8515 25.7549 60.7554 25.7549Z" fill="#D9D9D9"/>
</g>
<defs>
<clipPath id="clip0_64_1119">
<rect width="70" height="70" fill="white"/>
</clipPath>
</defs>
</svg>
