<svg width="30" height="30" viewBox="0 0 30 30" fill="none" xmlns="http://www.w3.org/2000/svg">
<g clip-path="url(#clip0_16_42)">
<path d="M0 12.4846C0 19.3704 5.60197 24.9662 12.4816 24.9662C15.6511 24.9662 18.5504 23.7746 20.7555 21.8213L28.7101 29.7758C28.8575 29.9232 29.0479 29.9969 29.2445 29.9969C29.441 29.9969 29.6315 29.9232 29.7789 29.7758C30.0737 29.481 30.0737 29.008 29.7789 28.7131L21.8182 20.7586C23.7715 18.5534 24.9631 15.6603 24.9631 12.4846C24.9631 5.59889 19.3612 0.00306702 12.4816 0.00306702C5.60197 0.00306702 0 5.59889 0 12.4846ZM23.4582 12.4846C23.4582 18.535 18.5319 23.4613 12.4816 23.4613C6.4312 23.4613 1.50491 18.535 1.50491 12.4846C1.50491 6.43427 6.4312 1.50798 12.4816 1.50798C18.5319 1.50798 23.4582 6.42813 23.4582 12.4846Z" fill="#000059"/>
</g>
<defs>
<clipPath id="clip0_16_42">
<rect width="30" height="30" fill="white"/>
</clipPath>
</defs>
</svg>
