<svg width="40" height="40" viewBox="0 0 40 40" fill="none" xmlns="http://www.w3.org/2000/svg">
<g clip-path="url(#clip0_62_901)">
<path fill-rule="evenodd" clip-rule="evenodd" d="M35.345 2.94588C34.1359 3.16099 32.4833 3.70788 30.0748 4.51074L11.5514 10.6852C9.20545 11.4672 7.49847 12.0366 6.25862 12.5204C4.97032 13.023 4.40506 13.3557 4.16831 13.5832C2.41551 15.2676 2.41551 18.0718 4.16831 19.756C4.40506 19.9837 4.97032 20.3162 6.25862 20.819C7.49847 21.3027 9.20545 21.872 11.5514 22.6542C11.5886 22.6665 11.6254 22.6788 11.6617 22.6911C12.4948 22.9684 13.0701 23.1599 13.5923 23.4362C14.8588 24.1059 15.8941 25.1413 16.5636 26.4077C16.8399 26.93 17.0316 27.505 17.309 28.3383C17.3213 28.3745 17.3336 28.4113 17.3458 28.4487C18.1277 30.7944 18.6973 32.5015 19.181 33.7415C19.6836 35.0296 20.0163 35.595 20.2438 35.8318C21.9283 37.5846 24.7324 37.5846 26.4169 35.8318C26.6443 35.595 26.9771 35.0296 27.4796 33.7415C27.9633 32.5015 28.5329 30.7944 29.3148 28.4487L35.4891 9.92528C36.2922 7.51666 36.8389 5.86414 37.0541 4.65491C37.271 3.43535 37.057 3.15828 36.9494 3.05061C36.8418 2.94291 36.5647 2.72894 35.345 2.94588ZM34.8453 0.13629C36.3002 -0.122513 37.8277 -0.106702 38.9672 1.03273C40.1067 2.17215 40.1224 3.69994 39.8639 5.15471C39.6076 6.59517 38.9901 8.4476 38.2355 10.711L38.1964 10.8277L32.0222 29.351L32.0079 29.3933C31.2431 31.6885 30.6512 33.4638 30.1381 34.7788C29.6407 36.0533 29.1391 37.1174 28.4744 37.8089C25.6672 40.7305 20.9934 40.7305 18.1862 37.8089C17.5216 37.1174 17.0196 36.0533 16.5225 34.7785C16.0094 33.4638 15.4179 31.6885 14.6528 29.3936L14.6385 29.351C14.3103 28.3662 14.1933 28.0295 14.0409 27.7418C13.6391 26.9819 13.0182 26.3606 12.2582 25.9588C11.9703 25.8067 11.6339 25.6897 10.6489 25.3616L10.6064 25.3473C8.31152 24.5822 6.5362 23.9906 5.22136 23.4775C3.94686 22.9801 2.8826 22.4785 2.19101 21.8138C-0.730335 19.0066 -0.730335 14.3328 2.19101 11.5256C2.8826 10.861 3.94686 10.3591 5.22136 9.86187C6.53623 9.34883 8.31161 8.75706 10.6066 7.99206L10.6489 7.97794L29.1724 1.80348L29.2889 1.76462C31.5524 1.01007 33.4048 0.392525 34.8453 0.13629Z" fill="#000059"/>
</g>
<defs>
<clipPath id="clip0_62_901">
<rect width="40" height="40" fill="white"/>
</clipPath>
</defs>
</svg>
