<svg width="40" height="40" viewBox="0 0 40 40" fill="none" xmlns="http://www.w3.org/2000/svg">
<g clip-path="url(#clip0_16_51)">
<path d="M28.8889 13.75H25.9259V22.5H22.2222V36.875H17.7778V22.5H14.074V13.75H11.1111V25H14.8148V39.375H25.1852V25H28.8889V13.75Z" fill="#D9D9D9"/>
<path d="M14.8148 4.375C14.8148 6.78125 17.1482 8.75 20 8.75C22.8519 8.75 25.1852 6.78125 25.1852 4.375C25.1852 1.96875 22.8519 0 20 0C17.1482 0 14.8148 1.96875 14.8148 4.375ZM22.2222 4.375C22.2222 5.40625 21.2222 6.25 20 6.25C18.7778 6.25 17.7778 5.40625 17.7778 4.375C17.7778 3.34375 18.7778 2.5 20 2.5C21.2222 2.5 22.2222 3.34375 22.2222 4.375Z" fill="#D9D9D9"/>
<path d="M2.22223 7.5C2.22223 9.90625 4.55556 11.875 7.40741 11.875C10.2593 11.875 12.5926 9.90625 12.5926 7.5C12.5926 5.09375 10.2593 3.125 7.40741 3.125C4.55556 3.125 2.22223 5.09375 2.22223 7.5ZM9.62964 7.5C9.62964 8.53125 8.62964 9.375 7.40741 9.375C6.18519 9.375 5.18519 8.53125 5.18519 7.5C5.18519 6.46875 6.18519 5.625 7.40741 5.625C8.62964 5.625 9.62964 6.46875 9.62964 7.5Z" fill="#D9D9D9"/>
<path d="M37.037 25.625H33.3333V36.875H27.4074V39.375H36.2963V28.125H40V15.625H37.037V25.625Z" fill="#D9D9D9"/>
<path d="M27.4074 7.5C27.4074 9.90625 29.7407 11.875 32.5926 11.875C35.4444 11.875 37.7778 9.90625 37.7778 7.5C37.7778 5.09375 35.4444 3.125 32.5926 3.125C29.7407 3.125 27.4074 5.09375 27.4074 7.5ZM32.5926 5.625C33.8148 5.625 34.8148 6.46875 34.8148 7.5C34.8148 8.53125 33.8148 9.375 32.5926 9.375C31.3704 9.375 30.3704 8.53125 30.3704 7.5C30.3704 6.46875 31.3704 5.625 32.5926 5.625Z" fill="#D9D9D9"/>
<path d="M6.66667 25.625H2.96296V15.625H0V28.125H3.7037V39.375H12.5926V36.875H6.66667V25.625Z" fill="#D9D9D9"/>
</g>
<defs>
<clipPath id="clip0_16_51">
<rect width="40" height="40" fill="white"/>
</clipPath>
</defs>
</svg>
