<svg width="40" height="41" viewBox="0 0 40 41" fill="none" xmlns="http://www.w3.org/2000/svg">
<path fill-rule="evenodd" clip-rule="evenodd" d="M31.4286 20.0311C30.42 20.0311 28.5714 19.8871 28.5714 19.6631V40.0311H34.2857V19.6631C34.2857 19.8871 32.4371 20.0311 31.4286 20.0311ZM34.2857 4.39914V0.0310974H28.5714V4.39914C25.7143 5.22514 22.8571 7.4231 22.8571 10.0311C22.8571 13.3451 26.6943 16.0311 31.4286 16.0311C36.1629 16.0311 40 13.3451 40 10.0311C40 7.4231 37.1429 5.22514 34.2857 4.39914ZM11.4286 20.3991V0.0310974H5.71429V20.3991C6.61143 20.1751 7.56286 20.0311 8.57143 20.0311C9.58 20.0311 11.4286 20.1751 11.4286 20.3991ZM17.1429 30.0311C17.1429 32.6391 14.2857 34.8371 11.4286 35.6631V40.0311H5.71429V35.6631C2.85714 34.8371 0 32.6391 0 30.0311C0 26.7171 3.83714 24.0311 8.57143 24.0311C13.3057 24.0311 17.1429 26.7171 17.1429 30.0311Z" fill="#D9D9D9"/>
</svg>
