<svg width="100" height="100" viewBox="0 0 100 100" fill="none" xmlns="http://www.w3.org/2000/svg">
<path d="M80 5H20C11.7157 5 5 11.7157 5 20V80C5 88.2843 11.7157 95 20 95H80C88.2843 95 95 88.2843 95 80V20C95 11.7157 88.2843 5 80 5Z" stroke="#D9D9D9" stroke-width="2"/>
<path d="M19.5 63V87H16.5938V63H19.5ZM23.375 78.7344V78.375C23.375 77.1562 23.5521 76.026 23.9062 74.9844C24.2604 73.9323 24.7708 73.0208 25.4375 72.25C26.1042 71.4688 26.9115 70.8646 27.8594 70.4375C28.8073 70 29.8698 69.7812 31.0469 69.7812C32.2344 69.7812 33.3021 70 34.25 70.4375C35.2083 70.8646 36.0208 71.4688 36.6875 72.25C37.3646 73.0208 37.8802 73.9323 38.2344 74.9844C38.5885 76.026 38.7656 77.1562 38.7656 78.375V78.7344C38.7656 79.9531 38.5885 81.0833 38.2344 82.125C37.8802 83.1667 37.3646 84.0781 36.6875 84.8594C36.0208 85.6302 35.2135 86.2344 34.2656 86.6719C33.3281 87.099 32.2656 87.3125 31.0781 87.3125C29.8906 87.3125 28.8229 87.099 27.875 86.6719C26.9271 86.2344 26.1146 85.6302 25.4375 84.8594C24.7708 84.0781 24.2604 83.1667 23.9062 82.125C23.5521 81.0833 23.375 79.9531 23.375 78.7344ZM26.2656 78.375V78.7344C26.2656 79.5781 26.3646 80.375 26.5625 81.125C26.7604 81.8646 27.0573 82.5208 27.4531 83.0938C27.8594 83.6667 28.3646 84.1198 28.9688 84.4531C29.5729 84.776 30.276 84.9375 31.0781 84.9375C31.8698 84.9375 32.5625 84.776 33.1562 84.4531C33.7604 84.1198 34.2604 83.6667 34.6562 83.0938C35.0521 82.5208 35.349 81.8646 35.5469 81.125C35.7552 80.375 35.8594 79.5781 35.8594 78.7344V78.375C35.8594 77.5417 35.7552 76.7552 35.5469 76.0156C35.349 75.2656 35.0469 74.6042 34.6406 74.0312C34.2448 73.4479 33.7448 72.9896 33.1406 72.6562C32.5469 72.3229 31.849 72.1562 31.0469 72.1562C30.2552 72.1562 29.5573 72.3229 28.9531 72.6562C28.3594 72.9896 27.8594 73.4479 27.4531 74.0312C27.0573 74.6042 26.7604 75.2656 26.5625 76.0156C26.3646 76.7552 26.2656 77.5417 26.2656 78.375ZM53.3438 70.0938H55.9688V86.6406C55.9688 88.1302 55.6667 89.401 55.0625 90.4531C54.4583 91.5052 53.6146 92.3021 52.5312 92.8438C51.4583 93.3958 50.2188 93.6719 48.8125 93.6719C48.2292 93.6719 47.5417 93.5781 46.75 93.3906C45.9688 93.2135 45.1979 92.9062 44.4375 92.4688C43.6875 92.0417 43.0573 91.4635 42.5469 90.7344L44.0625 89.0156C44.7708 89.8698 45.5104 90.4635 46.2812 90.7969C47.0625 91.1302 47.8333 91.2969 48.5938 91.2969C49.5104 91.2969 50.3021 91.125 50.9688 90.7812C51.6354 90.4375 52.151 89.9271 52.5156 89.25C52.8906 88.5833 53.0781 87.7604 53.0781 86.7812V73.8125L53.3438 70.0938ZM41.7031 78.7344V78.4062C41.7031 77.1146 41.8542 75.9427 42.1562 74.8906C42.4688 73.8281 42.9115 72.9167 43.4844 72.1562C44.0677 71.3958 44.7708 70.8125 45.5938 70.4062C46.4167 69.9896 47.3438 69.7812 48.375 69.7812C49.4375 69.7812 50.3646 69.9688 51.1562 70.3438C51.9583 70.7083 52.6354 71.2448 53.1875 71.9531C53.75 72.651 54.1927 73.4948 54.5156 74.4844C54.8385 75.474 55.0625 76.5938 55.1875 77.8438V79.2812C55.0729 80.5208 54.849 81.6354 54.5156 82.625C54.1927 83.6146 53.75 84.4583 53.1875 85.1562C52.6354 85.8542 51.9583 86.3906 51.1562 86.7656C50.3542 87.1302 49.4167 87.3125 48.3438 87.3125C47.3333 87.3125 46.4167 87.099 45.5938 86.6719C44.7812 86.2448 44.0833 85.6458 43.5 84.875C42.9167 84.1042 42.4688 83.1979 42.1562 82.1562C41.8542 81.1042 41.7031 79.9635 41.7031 78.7344ZM44.5938 78.4062V78.7344C44.5938 79.5781 44.6771 80.3698 44.8438 81.1094C45.0208 81.849 45.2865 82.5 45.6406 83.0625C46.0052 83.625 46.4688 84.0677 47.0312 84.3906C47.5938 84.7031 48.2656 84.8594 49.0469 84.8594C50.0052 84.8594 50.7969 84.6562 51.4219 84.25C52.0469 83.8438 52.5417 83.3073 52.9062 82.6406C53.2812 81.974 53.5729 81.25 53.7812 80.4688V76.7031C53.6667 76.1302 53.4896 75.5781 53.25 75.0469C53.0208 74.5052 52.7188 74.026 52.3438 73.6094C51.9792 73.1823 51.526 72.8438 50.9844 72.5938C50.4427 72.3438 49.8073 72.2188 49.0781 72.2188C48.2865 72.2188 47.6042 72.3854 47.0312 72.7188C46.4688 73.0417 46.0052 73.4896 45.6406 74.0625C45.2865 74.625 45.0208 75.2812 44.8438 76.0312C44.6771 76.7708 44.5938 77.5625 44.5938 78.4062ZM59.5938 78.7344V78.375C59.5938 77.1562 59.7708 76.026 60.125 74.9844C60.4792 73.9323 60.9896 73.0208 61.6562 72.25C62.3229 71.4688 63.1302 70.8646 64.0781 70.4375C65.026 70 66.0885 69.7812 67.2656 69.7812C68.4531 69.7812 69.5208 70 70.4688 70.4375C71.4271 70.8646 72.2396 71.4688 72.9062 72.25C73.5833 73.0208 74.099 73.9323 74.4531 74.9844C74.8073 76.026 74.9844 77.1562 74.9844 78.375V78.7344C74.9844 79.9531 74.8073 81.0833 74.4531 82.125C74.099 83.1667 73.5833 84.0781 72.9062 84.8594C72.2396 85.6302 71.4323 86.2344 70.4844 86.6719C69.5469 87.099 68.4844 87.3125 67.2969 87.3125C66.1094 87.3125 65.0417 87.099 64.0938 86.6719C63.1458 86.2344 62.3333 85.6302 61.6562 84.8594C60.9896 84.0781 60.4792 83.1667 60.125 82.125C59.7708 81.0833 59.5938 79.9531 59.5938 78.7344ZM62.4844 78.375V78.7344C62.4844 79.5781 62.5833 80.375 62.7812 81.125C62.9792 81.8646 63.276 82.5208 63.6719 83.0938C64.0781 83.6667 64.5833 84.1198 65.1875 84.4531C65.7917 84.776 66.4948 84.9375 67.2969 84.9375C68.0885 84.9375 68.7812 84.776 69.375 84.4531C69.9792 84.1198 70.4792 83.6667 70.875 83.0938C71.2708 82.5208 71.5677 81.8646 71.7656 81.125C71.974 80.375 72.0781 79.5781 72.0781 78.7344V78.375C72.0781 77.5417 71.974 76.7552 71.7656 76.0156C71.5677 75.2656 71.2656 74.6042 70.8594 74.0312C70.4635 73.4479 69.9635 72.9896 69.3594 72.6562C68.7656 72.3229 68.0677 72.1562 67.2656 72.1562C66.474 72.1562 65.776 72.3229 65.1719 72.6562C64.5781 72.9896 64.0781 73.4479 63.6719 74.0312C63.276 74.6042 62.9792 75.2656 62.7812 76.0156C62.5833 76.7552 62.4844 77.5417 62.4844 78.375ZM78.6562 85.4688C78.6562 84.9792 78.8073 84.5677 79.1094 84.2344C79.4219 83.8906 79.8698 83.7188 80.4531 83.7188C81.0365 83.7188 81.4792 83.8906 81.7812 84.2344C82.0938 84.5677 82.25 84.9792 82.25 85.4688C82.25 85.9479 82.0938 86.3542 81.7812 86.6875C81.4792 87.0208 81.0365 87.1875 80.4531 87.1875C79.8698 87.1875 79.4219 87.0208 79.1094 86.6875C78.8073 86.3542 78.6562 85.9479 78.6562 85.4688Z" fill="#D9D9D9"/>
</svg>
