<svg width="40" height="40" viewBox="0 0 40 40" fill="none" xmlns="http://www.w3.org/2000/svg">
<g clip-path="url(#clip0_64_1278)">
<path fill-rule="evenodd" clip-rule="evenodd" d="M1.53846 0C0.68882 0 0 0.624726 0 1.39535V38.6047C0 39.3753 0.68882 40 1.53846 40C2.3881 40 3.07692 39.3753 3.07692 38.6047V1.39535C3.07692 0.624726 2.3881 0 1.53846 0ZM33.3994 5.5814C33.3775 5.5814 33.3554 5.5814 33.3333 5.5814H14.8057C13.9036 5.58136 13.1253 5.58134 12.4868 5.63382C11.8117 5.68934 11.143 5.81222 10.5128 6.14221C9.81128 6.50962 9.22851 7.03807 8.82338 7.67442C8.45969 8.24597 8.3241 8.85241 8.26297 9.46484C8.20513 10.044 8.20513 10.7498 8.20513 11.568V11.6878C8.20513 12.506 8.20513 13.2118 8.26297 13.791C8.3241 14.4034 8.45969 15.0098 8.82338 15.5814C9.22851 16.2177 9.81128 16.7462 10.5128 17.1137C11.143 17.4435 11.8117 17.5665 12.4868 17.622C13.1253 17.6744 13.9036 17.6744 14.8057 17.6744H33.3994C34.3015 17.6744 35.0797 17.6744 35.7183 17.622C36.3935 17.5665 37.0621 17.4435 37.6923 17.1137C38.3939 16.7462 38.9766 16.2177 39.3817 15.5814C39.7455 15.0098 39.881 14.4034 39.9422 13.791C40.0001 13.2118 40 12.5061 40 11.6879V11.568C40 10.7497 40.0001 10.044 39.9422 9.46484C39.881 8.85241 39.7455 8.24597 39.3817 7.67442C38.9766 7.03807 38.3939 6.50962 37.6923 6.14221C37.0621 5.81222 36.3935 5.68934 35.7183 5.63382C35.0797 5.58134 34.3016 5.58136 33.3994 5.5814ZM35.4405 8.41313C35.9024 8.45109 36.07 8.51514 36.1538 8.55903C36.3877 8.68151 36.5819 8.85766 36.717 9.06977C36.7654 9.14579 36.836 9.29786 36.8778 9.71673C36.9216 10.1548 36.9231 10.7328 36.9231 11.6279C36.9231 12.523 36.9216 13.101 36.8778 13.5391C36.836 13.958 36.7654 14.11 36.717 14.186C36.5819 14.3982 36.3877 14.5743 36.1538 14.6968C36.07 14.7407 35.9024 14.8047 35.4405 14.8427C34.9575 14.8824 34.3202 14.8837 33.3333 14.8837H14.8718C13.8849 14.8837 13.2476 14.8824 12.7645 14.8427C12.3028 14.8047 12.1352 14.7407 12.0513 14.6968C11.8174 14.5743 11.6232 14.3982 11.4882 14.186C11.4398 14.11 11.3692 13.958 11.3274 13.5391C11.2835 13.101 11.2821 12.523 11.2821 11.6279C11.2821 10.7328 11.2835 10.1548 11.3274 9.71674C11.3692 9.29786 11.4398 9.14579 11.4882 9.06977C11.6232 8.85766 11.8174 8.68151 12.0513 8.55903C12.1352 8.51514 12.3028 8.45109 12.7645 8.41313C13.2476 8.37343 13.8849 8.37209 14.8718 8.37209H33.3333C34.3202 8.37209 34.9575 8.37343 35.4405 8.41313ZM27.2456 22.3256H14.8057C13.9036 22.3256 13.1253 22.3256 12.4868 22.378C11.8117 22.4335 11.143 22.5565 10.5128 22.8863C9.81128 23.2538 9.22851 23.7823 8.82338 24.4186C8.45969 24.9901 8.3241 25.5967 8.26297 26.2089C8.20513 26.7881 8.20513 27.494 8.20513 28.3122V28.432C8.20513 29.2502 8.20513 29.9561 8.26297 30.5353C8.3241 31.1475 8.45969 31.754 8.82338 32.3256C9.22851 32.9619 9.81128 33.4904 10.5128 33.8579C11.143 34.1877 11.8117 34.3107 12.4868 34.3661C13.1253 34.4186 13.9036 34.4186 14.8057 34.4186H27.2456C28.1478 34.4186 28.9259 34.4186 29.5644 34.3661C30.2396 34.3107 30.9083 34.1877 31.5385 33.8579C32.2401 33.4904 32.8227 32.9619 33.2278 32.3256C33.5917 31.754 33.7271 31.1475 33.7883 30.5353C33.8462 29.9561 33.8462 29.2502 33.8462 28.432V28.3122C33.8462 27.494 33.8462 26.7881 33.7883 26.2089C33.7271 25.5967 33.5917 24.9901 33.2278 24.4186C32.8227 23.7823 32.2401 23.2538 31.5385 22.8863C30.9083 22.5565 30.2396 22.4335 29.5644 22.378C28.9258 22.3256 28.1477 22.3256 27.2456 22.3256ZM29.2867 25.1574C29.7485 25.1954 29.9162 25.2593 30 25.3033C30.2339 25.4257 30.4281 25.6019 30.5631 25.814C30.6115 25.89 30.6821 26.042 30.724 26.4608C30.7678 26.899 30.7692 27.477 30.7692 28.3721C30.7692 29.2672 30.7678 29.8452 30.724 30.2833C30.6821 30.7021 30.6115 30.8541 30.5631 30.9302C30.4281 31.1423 30.2339 31.3185 30 31.4409C29.9162 31.4848 29.7485 31.5488 29.2867 31.5868C28.8037 31.6266 28.1664 31.6279 27.1795 31.6279H14.8718C13.8849 31.6279 13.2476 31.6266 12.7645 31.5868C12.3028 31.5488 12.1352 31.4848 12.0513 31.4409C11.8174 31.3185 11.6232 31.1423 11.4882 30.9302C11.4398 30.8541 11.3692 30.7021 11.3274 30.2833C11.2835 29.8452 11.2821 29.2672 11.2821 28.3721C11.2821 27.477 11.2835 26.899 11.3274 26.4608C11.3692 26.042 11.4398 25.89 11.4882 25.814C11.6232 25.6019 11.8174 25.4257 12.0513 25.3033C12.1352 25.2593 12.3028 25.1954 12.7645 25.1574C13.2476 25.1176 13.8849 25.1163 14.8718 25.1163H27.1795C28.1664 25.1163 28.8037 25.1176 29.2867 25.1574Z" fill="#D9D9D9"/>
</g>
<defs>
<clipPath id="clip0_64_1278">
<rect width="40" height="40" fill="white" transform="matrix(-1 0 0 1 40 0)"/>
</clipPath>
</defs>
</svg>
